<?xml version="1.0" encoding="UTF-8"?>
<svg xmlns="http://www.w3.org/2000/svg" xmlns:xlink="http://www.w3.org/1999/xlink" width="194" height="194" viewBox="46 46 194 194">
<defs>
<g>
<g id="glyph-0-0">
<path d="M 22.46875 -5.65625 L 12.609375 -5.65625 L 10.171875 0 L -0.921875 0 L 14.078125 -31.859375 L 28.171875 -31.859375 L 34.5625 0 L 23.296875 0 Z M 19.84375 -24.140625 L 17.71875 -17.65625 L 15.78125 -12.921875 L 21.265625 -12.921875 L 20.625 -18.25 L 20.203125 -24.140625 Z M 19.84375 -24.140625 "/>
</g>
<g id="glyph-0-1">
<path d="M 32.546875 -12.828125 C 32.265625 -10.648438 31.769531 -8.722656 31.0625 -7.046875 C 30.363281 -5.378906 29.375 -3.984375 28.09375 -2.859375 C 26.820312 -1.742188 25.257812 -0.90625 23.40625 -0.34375 C 21.550781 0.214844 19.332031 0.5 16.75 0.5 C 14.019531 0.5 11.726562 0.210938 9.875 -0.359375 C 8.019531 -0.941406 6.539062 -1.789062 5.4375 -2.90625 C 4.332031 -4.03125 3.585938 -5.410156 3.203125 -7.046875 C 2.816406 -8.691406 2.757812 -10.570312 3.03125 -12.6875 L 5.4375 -31.859375 L 16.484375 -31.859375 L 13.953125 -11.578125 C 13.609375 -8.796875 14.742188 -7.40625 17.359375 -7.40625 C 18.273438 -7.40625 19.15625 -7.71875 20 -8.34375 C 20.84375 -8.96875 21.359375 -10.046875 21.546875 -11.578125 L 24.03125 -31.859375 L 34.9375 -31.859375 Z M 32.546875 -12.828125 "/>
</g>
<g id="glyph-0-2">
<path d="M 8.609375 0 L 11.5 -23.90625 L 1.984375 -23.90625 L 2.984375 -31.859375 L 33.28125 -31.859375 L 32.265625 -23.90625 L 22.6875 -23.90625 L 19.796875 0 Z M 8.609375 0 "/>
</g>
<g id="glyph-0-3">
<path d="M 20.8125 -32.59375 C 23.382812 -32.59375 25.613281 -32.234375 27.5 -31.515625 C 29.382812 -30.796875 30.945312 -29.789062 32.1875 -28.5 C 33.4375 -27.207031 34.367188 -25.65625 34.984375 -23.84375 C 35.597656 -22.039062 35.90625 -20.050781 35.90625 -17.875 C 35.90625 -15.207031 35.488281 -12.738281 34.65625 -10.46875 C 33.832031 -8.207031 32.628906 -6.265625 31.046875 -4.640625 C 29.460938 -3.015625 27.523438 -1.742188 25.234375 -0.828125 C 22.953125 0.0859375 20.359375 0.546875 17.453125 0.546875 C 14.898438 0.546875 12.6875 0.195312 10.8125 -0.5 C 8.945312 -1.207031 7.398438 -2.195312 6.171875 -3.46875 C 4.941406 -4.738281 4.019531 -6.25 3.40625 -8 C 2.789062 -9.75 2.484375 -11.679688 2.484375 -13.796875 C 2.484375 -16.484375 2.878906 -18.976562 3.671875 -21.28125 C 4.472656 -23.582031 5.648438 -25.566406 7.203125 -27.234375 C 8.753906 -28.898438 10.671875 -30.207031 12.953125 -31.15625 C 15.242188 -32.113281 17.863281 -32.59375 20.8125 -32.59375 Z M 20.109375 -24.546875 C 18.941406 -24.546875 17.984375 -24.191406 17.234375 -23.484375 C 16.484375 -22.785156 15.882812 -21.890625 15.4375 -20.796875 C 15 -19.710938 14.691406 -18.503906 14.515625 -17.171875 C 14.347656 -15.835938 14.265625 -14.523438 14.265625 -13.234375 C 14.265625 -11.523438 14.554688 -10.125 15.140625 -9.03125 C 15.722656 -7.945312 16.785156 -7.40625 18.328125 -7.40625 C 19.429688 -7.40625 20.34375 -7.734375 21.0625 -8.390625 C 21.78125 -9.046875 22.359375 -9.914062 22.796875 -11 C 23.242188 -12.09375 23.5625 -13.320312 23.75 -14.6875 C 23.9375 -16.050781 24.03125 -17.4375 24.03125 -18.84375 C 24.03125 -20.59375 23.742188 -21.976562 23.171875 -23 C 22.609375 -24.03125 21.585938 -24.546875 20.109375 -24.546875 Z M 20.109375 -24.546875 "/>
</g>
</g>
</defs>
<path fill-rule="evenodd" fill="rgb(79.608154%, 9.411621%, 10.195923%)" fill-opacity="1" d="M 234.503906 73.121094 L 212.027344 210.730469 C 209.785156 224.460938 196.804688 235.59375 183.078125 235.59375 L 70.25 235.59375 C 56.125 235.59375 46.515625 224.148438 48.820312 210.023438 L 71.300781 72.414062 C 73.542969 58.683594 86.519531 47.550781 100.246094 47.550781 L 213.078125 47.550781 C 227.199219 47.550781 236.808594 59 234.503906 73.121094 Z M 223.054688 116.03125 L 230.179688 72.414062 C 232.023438 61.117188 224.371094 51.929688 213.078125 51.929688 L 100.246094 51.929688 C 88.558594 51.929688 77.53125 61.433594 75.621094 73.121094 L 68.613281 116.03125 C 72.667969 110.289062 79.390625 106.386719 86.378906 106.386719 L 208.441406 106.386719 C 215.429688 106.386719 220.875 110.289062 223.054688 116.03125 Z M 223.054688 116.03125 "/>
<g fill="rgb(11.372375%, 11.372375%, 10.588074%)" fill-opacity="1">
<use xlink:href="#glyph-0-0" x="81.633637" y="96.747663"/>
</g>
<g fill="rgb(11.372375%, 11.372375%, 10.588074%)" fill-opacity="1">
<use xlink:href="#glyph-0-1" x="117.584197" y="96.747663"/>
</g>
<g fill="rgb(11.372375%, 11.372375%, 10.588074%)" fill-opacity="1">
<use xlink:href="#glyph-0-2" x="152.466964" y="96.747663"/>
</g>
<g fill="rgb(11.372375%, 11.372375%, 10.588074%)" fill-opacity="1">
<use xlink:href="#glyph-0-3" x="183.207431" y="96.747663"/>
</g>
<path fill-rule="nonzero" fill="rgb(100%, 100%, 100%)" fill-opacity="1" d="M 156.242188 210.355469 L 133.796875 184.1875 L 117.042969 184.1875 L 117.042969 210.355469 L 91.199219 210.355469 L 91.199219 129.328125 L 152.410156 129.328125 C 159.199219 129.328125 165.183594 130.457031 170.367188 132.722656 C 175.621094 134.984375 179.675781 138.160156 182.519531 142.25 C 185.441406 146.261719 186.902344 150.933594 186.902344 156.265625 L 186.902344 156.703125 C 186.902344 163.636719 184.859375 169.367188 180.769531 173.894531 C 176.753906 178.417969 171.167969 181.449219 164.015625 182.980469 L 187.558594 210.355469 Z M 161.496094 156.921875 C 161.496094 154.074219 160.878906 151.992188 159.636719 150.679688 C 158.46875 149.367188 156.9375 148.5625 155.039062 148.269531 C 153.140625 147.980469 150.367188 147.832031 146.714844 147.832031 L 142.773438 147.832031 C 137.371094 147.980469 128.792969 148.050781 117.042969 148.050781 L 117.042969 165.460938 L 146.714844 165.460938 C 150.367188 165.460938 153.140625 165.316406 155.039062 165.023438 C 156.9375 164.730469 158.46875 164.003906 159.636719 162.835938 C 160.878906 161.59375 161.496094 159.621094 161.496094 156.921875 Z M 161.496094 156.921875 "/>
</svg>
